<?xml version="1.0" encoding="UTF-8"?>
<svg width="24px" height="24px" stroke-width="1.5" viewBox="0 0 24 24" fill="none" xmlns="http://www.w3.org/2000/svg" color="#000000">
<path d="M2 14v-3M22 14v-3M7 11v3m10-3v3M2 11l2.872-6.5A2 2 0 016.584 3h10.832a2 2 0 011.712 1.5L22 11M2 11h20M4 14a2 2 0 100 4 2 2 0 000-4zm0 0v-3m16 3a2 2 0 100 4 2 2 0 000-4zm0 0v-3M7 14v-3m10 3v-3m0 3a2 2 0 100 4 2 2 0 000-4zM7 14a2 2 0 100 4 2 2 0 000-4z" stroke="#000000" stroke-width="1.5" stroke-linecap="round" stroke-linejoin="round"></path>
</svg>